<svg width="385" height="106" viewBox="0 0 385 106" fill="none" xmlns="http://www.w3.org/2000/svg">
<path d="M131.078 37.4545H135.844V52.0959C135.844 53.7398 135.452 55.1783 134.666 56.4112C133.889 57.6442 132.799 58.6056 131.397 59.2955C129.995 59.978 128.362 60.3192 126.498 60.3192C124.627 60.3192 122.99 59.978 121.588 59.2955C120.187 58.6056 119.097 57.6442 118.319 56.4112C117.541 55.1783 117.152 53.7398 117.152 52.0959V37.4545H121.919V51.6886C121.919 52.5472 122.106 53.3105 122.48 53.9783C122.862 54.6462 123.397 55.1709 124.087 55.5526C124.777 55.9342 125.581 56.125 126.498 56.125C127.423 56.125 128.226 55.9342 128.909 55.5526C129.599 55.1709 130.131 54.6462 130.505 53.9783C130.887 53.3105 131.078 52.5472 131.078 51.6886V37.4545ZM144.368 50.2244V60H139.678V43.0909H144.148V46.0742H144.346C144.72 45.0908 145.347 44.3129 146.228 43.7404C147.109 43.1606 148.177 42.8707 149.432 42.8707C150.606 42.8707 151.63 43.1276 152.503 43.6413C153.376 44.1551 154.055 44.889 154.54 45.843C155.024 46.7898 155.266 47.92 155.266 49.2337V60H150.577V50.0703C150.584 49.0355 150.32 48.2282 149.784 47.6484C149.248 47.0613 148.511 46.7678 147.571 46.7678C146.94 46.7678 146.382 46.9035 145.898 47.1751C145.421 47.4466 145.047 47.8429 144.775 48.364C144.511 48.8777 144.375 49.4979 144.368 50.2244ZM158.962 60V43.0909H163.652V60H158.962ZM161.318 40.9112C160.621 40.9112 160.023 40.68 159.524 40.2177C159.032 39.748 158.786 39.1866 158.786 38.5334C158.786 37.8875 159.032 37.3335 159.524 36.8711C160.023 36.4014 160.621 36.1665 161.318 36.1665C162.015 36.1665 162.61 36.4014 163.101 36.8711C163.601 37.3335 163.85 37.8875 163.85 38.5334C163.85 39.1866 163.601 39.748 163.101 40.2177C162.61 40.68 162.015 40.9112 161.318 40.9112ZM167.497 60V37.4545H172.186V45.9311H172.329C172.535 45.4761 172.832 45.0137 173.221 44.544C173.617 44.067 174.131 43.6707 174.762 43.3551C175.401 43.0322 176.193 42.8707 177.14 42.8707C178.373 42.8707 179.511 43.1937 180.553 43.8395C181.595 44.478 182.428 45.4431 183.052 46.7347C183.675 48.0191 183.987 49.63 183.987 51.5675C183.987 53.4536 183.683 55.0462 183.074 56.3452C182.472 57.6368 181.65 58.6166 180.608 59.2844C179.573 59.945 178.413 60.2752 177.129 60.2752C176.219 60.2752 175.445 60.1248 174.806 59.8239C174.175 59.523 173.658 59.145 173.254 58.69C172.85 58.2276 172.542 57.7616 172.329 57.2919H172.12V60H167.497ZM172.087 51.5455C172.087 52.5509 172.227 53.4279 172.506 54.1765C172.784 54.9251 173.188 55.5085 173.716 55.9268C174.245 56.3378 174.887 56.5433 175.643 56.5433C176.406 56.5433 177.052 56.3342 177.58 55.9158C178.109 55.4902 178.509 54.9031 178.78 54.1545C179.059 53.3986 179.199 52.5289 179.199 51.5455C179.199 50.5694 179.063 49.7107 178.791 48.9695C178.52 48.2282 178.12 47.6484 177.591 47.2301C177.063 46.8118 176.414 46.6026 175.643 46.6026C174.88 46.6026 174.234 46.8045 173.705 47.2081C173.184 47.6117 172.784 48.1842 172.506 48.9254C172.227 49.6667 172.087 50.54 172.087 51.5455ZM194.756 60.3303C193.046 60.3303 191.568 59.967 190.32 59.2404C189.08 58.5065 188.122 57.4864 187.447 56.18C186.772 54.8664 186.434 53.3435 186.434 51.6115C186.434 49.8648 186.772 48.3383 187.447 47.032C188.122 45.7183 189.08 44.6982 190.32 43.9716C191.568 43.2377 193.046 42.8707 194.756 42.8707C196.466 42.8707 197.942 43.2377 199.182 43.9716C200.43 44.6982 201.391 45.7183 202.066 47.032C202.741 48.3383 203.079 49.8648 203.079 51.6115C203.079 53.3435 202.741 54.8664 202.066 56.18C201.391 57.4864 200.43 58.5065 199.182 59.2404C197.942 59.967 196.466 60.3303 194.756 60.3303ZM194.778 56.6974C195.556 56.6974 196.206 56.4773 196.727 56.0369C197.248 55.5893 197.641 54.9801 197.905 54.2095C198.176 53.4389 198.312 52.5619 198.312 51.5785C198.312 50.5951 198.176 49.718 197.905 48.9474C197.641 48.1768 197.248 47.5677 196.727 47.12C196.206 46.6723 195.556 46.4485 194.778 46.4485C193.993 46.4485 193.333 46.6723 192.797 47.12C192.269 47.5677 191.869 48.1768 191.597 48.9474C191.333 49.718 191.201 50.5951 191.201 51.5785C191.201 52.5619 191.333 53.4389 191.597 54.2095C191.869 54.9801 192.269 55.5893 192.797 56.0369C193.333 56.4773 193.993 56.6974 194.778 56.6974ZM213.768 60.3303C212.058 60.3303 210.579 59.967 209.332 59.2404C208.091 58.5065 207.134 57.4864 206.459 56.18C205.783 54.8664 205.446 53.3435 205.446 51.6115C205.446 49.8648 205.783 48.3383 206.459 47.032C207.134 45.7183 208.091 44.6982 209.332 43.9716C210.579 43.2377 212.058 42.8707 213.768 42.8707C215.478 42.8707 216.953 43.2377 218.194 43.9716C219.441 44.6982 220.403 45.7183 221.078 47.032C221.753 48.3383 222.091 49.8648 222.091 51.6115C222.091 53.3435 221.753 54.8664 221.078 56.18C220.403 57.4864 219.441 58.5065 218.194 59.2404C216.953 59.967 215.478 60.3303 213.768 60.3303ZM213.79 56.6974C214.568 56.6974 215.218 56.4773 215.739 56.0369C216.26 55.5893 216.652 54.9801 216.917 54.2095C217.188 53.4389 217.324 52.5619 217.324 51.5785C217.324 50.5951 217.188 49.718 216.917 48.9474C216.652 48.1768 216.26 47.5677 215.739 47.12C215.218 46.6723 214.568 46.4485 213.79 46.4485C213.005 46.4485 212.344 46.6723 211.809 47.12C211.28 47.5677 210.88 48.1768 210.609 48.9474C210.345 49.718 210.212 50.5951 210.212 51.5785C210.212 52.5619 210.345 53.4389 210.609 54.2095C210.88 54.9801 211.28 55.5893 211.809 56.0369C212.344 56.4773 213.005 56.6974 213.79 56.6974ZM229.389 55.1342L229.4 49.5089H230.083L235.499 43.0909H240.882L233.606 51.5895H232.494L229.389 55.1342ZM225.14 60V37.4545H229.83V60H225.14ZM235.708 60L230.732 52.6353L233.859 49.3217L241.201 60H235.708ZM250.193 60.3303C248.453 60.3303 246.956 59.978 245.701 59.2734C244.454 58.5616 243.492 57.5561 242.817 56.2571C242.142 54.9508 241.804 53.4059 241.804 51.6225C241.804 49.8832 242.142 48.3567 242.817 47.043C243.492 45.7293 244.443 44.7055 245.668 43.9716C246.901 43.2377 248.347 42.8707 250.006 42.8707C251.121 42.8707 252.16 43.0505 253.121 43.4102C254.09 43.7624 254.934 44.2945 255.653 45.0064C256.379 45.7183 256.945 46.6136 257.348 47.6925C257.752 48.764 257.954 50.0189 257.954 51.4574V52.7454H243.676V49.8391H253.539C253.539 49.1639 253.392 48.5658 253.099 48.0447C252.805 47.5237 252.398 47.1164 251.877 46.8228C251.363 46.5219 250.765 46.3714 250.083 46.3714C249.371 46.3714 248.74 46.5366 248.189 46.8668C247.646 47.1897 247.22 47.6264 246.912 48.1768C246.604 48.7199 246.446 49.3254 246.439 49.9933V52.7564C246.439 53.593 246.593 54.3159 246.901 54.9251C247.217 55.5342 247.661 56.0039 248.233 56.3342C248.806 56.6644 249.484 56.8295 250.27 56.8295C250.791 56.8295 251.268 56.7562 251.701 56.6094C252.134 56.4626 252.504 56.2424 252.813 55.9489C253.121 55.6553 253.356 55.2957 253.517 54.87L257.855 55.1562C257.634 56.1984 257.183 57.1084 256.501 57.8864C255.825 58.657 254.952 59.2588 253.881 59.6918C252.816 60.1174 251.587 60.3303 250.193 60.3303ZM261.014 60V43.0909H265.561V46.0412H265.737C266.045 44.9917 266.562 44.1991 267.289 43.6634C268.015 43.1203 268.852 42.8487 269.799 42.8487C270.034 42.8487 270.287 42.8634 270.558 42.8928C270.83 42.9221 271.068 42.9625 271.274 43.0138V47.1751C271.054 47.109 270.749 47.0503 270.36 46.9989C269.971 46.9476 269.615 46.9219 269.292 46.9219C268.603 46.9219 267.986 47.0723 267.443 47.3732C266.907 47.6668 266.482 48.0778 266.166 48.6062C265.858 49.1346 265.704 49.7437 265.704 50.4336V60H261.014ZM282.657 37.4545L289.35 56.4332H289.614L296.307 37.4545H299.17L290.891 60H288.073L279.795 37.4545H282.657ZM307.844 60.3523C306.215 60.3523 304.81 59.9927 303.628 59.2734C302.454 58.5469 301.547 57.5341 300.909 56.2351C300.278 54.9287 299.962 53.4096 299.962 51.6776C299.962 49.9455 300.278 48.419 300.909 47.098C301.547 45.7696 302.435 44.7348 303.573 43.9936C304.718 43.245 306.054 42.8707 307.58 42.8707C308.461 42.8707 309.33 43.0175 310.189 43.3111C311.048 43.6046 311.829 44.0817 312.534 44.7422C313.238 45.3954 313.8 46.2614 314.218 47.3402C314.637 48.419 314.846 49.7474 314.846 51.3253V52.4261H301.812V50.1804H312.204C312.204 49.2263 312.013 48.375 311.631 47.6264C311.257 46.8778 310.721 46.287 310.024 45.854C309.334 45.421 308.519 45.2045 307.58 45.2045C306.545 45.2045 305.65 45.4614 304.894 45.9751C304.145 46.4815 303.569 47.142 303.166 47.9567C302.762 48.7713 302.56 49.6446 302.56 50.5767V52.0739C302.56 53.3509 302.78 54.4334 303.221 55.3214C303.668 56.2021 304.289 56.8736 305.081 57.3359C305.874 57.791 306.795 58.0185 307.844 58.0185C308.527 58.0185 309.143 57.9231 309.694 57.7322C310.251 57.5341 310.732 57.2405 311.136 56.8516C311.539 56.4553 311.851 55.9635 312.072 55.3764L314.581 56.081C314.317 56.9323 313.873 57.6809 313.249 58.3267C312.626 58.9652 311.855 59.4643 310.938 59.8239C310.02 60.1761 308.989 60.3523 307.844 60.3523ZM321.396 49.8281V60H318.798V37.4545H321.396V45.733H321.616C322.012 44.8596 322.607 44.1661 323.399 43.6523C324.199 43.1313 325.263 42.8707 326.592 42.8707C327.744 42.8707 328.753 43.1019 329.619 43.5643C330.485 44.0193 331.157 44.7202 331.634 45.6669C332.118 46.6063 332.36 47.8026 332.36 49.2557V60H329.762V49.4318C329.762 48.0888 329.414 47.0503 328.716 46.3164C328.027 45.5752 327.069 45.2045 325.843 45.2045C324.992 45.2045 324.229 45.3844 323.553 45.744C322.886 46.1036 322.357 46.6283 321.968 47.3182C321.587 48.008 321.396 48.8447 321.396 49.8281ZM337.113 60V43.0909H339.711V60H337.113ZM338.434 40.2727C337.928 40.2727 337.491 40.1003 337.124 39.7553C336.765 39.4104 336.585 38.9957 336.585 38.5114C336.585 38.027 336.765 37.6123 337.124 37.2674C337.491 36.9225 337.928 36.75 338.434 36.75C338.941 36.75 339.374 36.9225 339.733 37.2674C340.1 37.6123 340.284 38.027 340.284 38.5114C340.284 38.9957 340.1 39.4104 339.733 39.7553C339.374 40.1003 338.941 40.2727 338.434 40.2727ZM351.339 60.3523C349.754 60.3523 348.389 59.978 347.244 59.2294C346.099 58.4808 345.218 57.4497 344.602 56.136C343.985 54.8223 343.677 53.3215 343.677 51.6335C343.677 49.9162 343.993 48.4007 344.624 47.087C345.262 45.766 346.15 44.7348 347.288 43.9936C348.433 43.245 349.768 42.8707 351.295 42.8707C352.484 42.8707 353.555 43.0909 354.509 43.5312C355.463 43.9716 356.245 44.5881 356.854 45.3807C357.463 46.1733 357.841 47.098 357.988 48.1548H355.39C355.192 47.3842 354.752 46.7017 354.069 46.1072C353.394 45.5054 352.484 45.2045 351.339 45.2045C350.326 45.2045 349.438 45.4687 348.675 45.9972C347.919 46.5182 347.328 47.2558 346.903 48.2099C346.484 49.1566 346.275 50.2685 346.275 51.5455C346.275 52.8518 346.481 53.9893 346.892 54.9581C347.31 55.9268 347.897 56.6791 348.653 57.2148C349.416 57.7506 350.311 58.0185 351.339 58.0185C352.014 58.0185 352.627 57.901 353.177 57.6662C353.728 57.4313 354.194 57.0938 354.575 56.6534C354.957 56.2131 355.229 55.6847 355.39 55.0682H357.988C357.841 56.0663 357.478 56.9653 356.898 57.7653C356.326 58.5579 355.566 59.189 354.619 59.6587C353.68 60.1211 352.587 60.3523 351.339 60.3523ZM364.384 37.4545V60H361.786V37.4545H364.384ZM376.232 60.3523C374.603 60.3523 373.197 59.9927 372.016 59.2734C370.841 58.5469 369.935 57.5341 369.297 56.2351C368.665 54.9287 368.35 53.4096 368.35 51.6776C368.35 49.9455 368.665 48.419 369.297 47.098C369.935 45.7696 370.823 44.7348 371.961 43.9936C373.106 43.245 374.441 42.8707 375.968 42.8707C376.848 42.8707 377.718 43.0175 378.577 43.3111C379.435 43.6046 380.217 44.0817 380.922 44.7422C381.626 45.3954 382.188 46.2614 382.606 47.3402C383.024 48.419 383.233 49.7474 383.233 51.3253V52.4261H370.199V50.1804H380.591C380.591 49.2263 380.401 48.375 380.019 47.6264C379.645 46.8778 379.109 46.287 378.412 45.854C377.722 45.421 376.907 45.2045 375.968 45.2045C374.933 45.2045 374.038 45.4614 373.282 45.9751C372.533 46.4815 371.957 47.142 371.553 47.9567C371.15 48.7713 370.948 49.6446 370.948 50.5767V52.0739C370.948 53.3509 371.168 54.4334 371.608 55.3214C372.056 56.2021 372.676 56.8736 373.469 57.3359C374.261 57.791 375.182 58.0185 376.232 58.0185C376.915 58.0185 377.531 57.9231 378.081 57.7322C378.639 57.5341 379.12 57.2405 379.524 56.8516C379.927 56.4553 380.239 55.9635 380.459 55.3764L382.969 56.081C382.705 56.9323 382.261 57.6809 381.637 58.3267C381.013 58.9652 380.243 59.4643 379.325 59.8239C378.408 60.1761 377.377 60.3523 376.232 60.3523Z" fill="white"/>
<path d="M53 106C82.2711 106 106 82.2711 106 53C106 23.7289 82.2711 0 53 0C23.7289 0 0 23.7289 0 53C0 82.2711 23.7289 106 53 106Z" fill="white"/>
<path d="M64.0417 38.6396H67.5057V51.1325C67.5057 52.5019 67.182 53.7064 66.5347 54.7459C65.8935 55.7854 64.991 56.5977 63.8269 57.1828C62.6629 57.7617 61.3028 58.0512 59.7467 58.0512C58.1843 58.0512 56.8211 57.7617 55.6571 57.1828C54.4931 56.5977 53.5905 55.7854 52.9493 54.7459C52.3082 53.7064 51.9876 52.5019 51.9876 51.1325V38.6396H55.4517V50.843C55.4517 51.6398 55.626 52.3494 55.9745 52.9718C56.3293 53.5943 56.8273 54.0829 57.4684 54.4378C58.1096 54.7863 58.869 54.9606 59.7467 54.9606C60.6243 54.9606 61.3838 54.7863 62.0249 54.4378C62.6723 54.0829 63.1702 53.5943 63.5188 52.9718C63.8674 52.3494 64.0417 51.6398 64.0417 50.843V38.6396Z" fill="black"/>
<path d="M71.2709 57.7617V38.6396H78.5911C79.9729 38.6396 81.1214 38.8574 82.0364 39.2931C82.9577 39.7226 83.6455 40.3109 84.0999 41.0578C84.5605 41.8048 84.7908 42.6514 84.7908 43.5975C84.7908 44.3756 84.6414 45.0416 84.3426 45.5956C84.0439 46.1434 83.6424 46.5885 83.1382 46.9308C82.634 47.2732 82.0706 47.519 81.4482 47.6684V47.8552C82.1267 47.8925 82.7771 48.101 83.3996 48.4807C84.0283 48.8542 84.5418 49.3833 84.9402 50.068C85.3386 50.7527 85.5378 51.5806 85.5378 52.5517C85.5378 53.5414 85.2981 54.4315 84.8188 55.2221C84.3395 56.0064 83.6175 56.6257 82.6527 57.0801C81.6878 57.5345 80.474 57.7617 79.0112 57.7617H71.2709ZM74.7349 54.8672H78.4603C79.7177 54.8672 80.6234 54.6276 81.1774 54.1483C81.7376 53.6628 82.0177 53.0403 82.0177 52.2809C82.0177 51.7145 81.8777 51.204 81.5976 50.7496C81.3175 50.289 80.9191 49.928 80.4024 49.6665C79.8858 49.3989 79.2695 49.2651 78.5537 49.2651H74.7349V54.8672ZM74.7349 46.7721H78.1616C78.7591 46.7721 79.2976 46.6631 79.7769 46.4453C80.2562 46.2212 80.6327 45.9068 80.9066 45.5022C81.1867 45.0914 81.3268 44.6059 81.3268 44.0457C81.3268 43.3049 81.0654 42.6949 80.5425 42.2156C80.0258 41.7363 79.2571 41.4967 78.2363 41.4967H74.7349V46.7721Z" fill="black"/>
<path d="M48.9801 73.7721H50.3512V32.0898H48.9801V73.7721Z" fill="black"/>
<path d="M40.7397 32.9674C40.7122 32.9948 39.821 33.0634 38.7652 33.1045C35.5568 33.2416 33.2122 33.7352 31.2103 34.695C29.7981 35.3806 28.8246 36.2444 28.1116 37.4921C25.7944 41.5095 23.6006 44.9785 23.3949 44.9785C23.2578 44.9785 23.2304 44.7865 23.2989 44.0872C23.3949 43.0589 23.1892 42.6338 22.4625 42.291C22.0512 42.0854 21.7633 42.0991 18.9936 42.3596C17.3345 42.5241 15.9222 42.6475 15.8537 42.6475C15.7714 42.6475 15.5795 42.7709 15.4149 42.9218C15.1407 43.1823 15.1133 43.3331 15.1133 44.8276V46.4593L15.5658 46.6649C15.7988 46.7746 17.074 47.1311 18.3903 47.4602C19.7066 47.7893 20.8994 48.1595 21.064 48.2966L21.3519 48.5297L20.6389 49.9008L19.9122 51.2582V61.24C19.9122 71.0573 19.9122 71.2218 20.2002 71.7977C20.351 72.1268 20.6801 72.5107 20.9269 72.6752C21.3656 72.9358 21.585 72.9495 26.6993 72.9495C31.7862 72.9495 32.033 72.9358 32.4581 72.6752C33.1436 72.2502 33.363 71.7977 33.3904 70.8516L33.4178 70.0015L40.6574 69.9604L47.8832 69.933V66.9165H33.8977V65.8196H47.8832V64.7227C47.8832 64.1194 47.8695 63.6121 47.8558 63.5984C47.8284 63.5847 45.7854 63.5298 43.3174 63.4887C39.0669 63.4201 38.8064 63.4064 38.6144 63.1596C38.4773 62.9539 38.4225 62.4055 38.4225 60.9932C38.4225 59.2793 38.4499 59.0736 38.6967 58.8268C38.9572 58.5663 39.1492 58.5526 43.4271 58.5526H47.8832L47.8558 54.6723L47.8147 50.8057L42.0559 50.7235C36.5166 50.6412 32.5952 50.4904 27.4534 50.175C23.6965 49.9419 23.7103 49.9831 25.8629 46.1713C26.713 44.6494 27.7414 42.8806 28.139 42.2362C28.5366 41.5918 29.2359 40.4674 29.6747 39.727C30.5933 38.2325 31.224 37.6155 32.5266 36.9574C35.0906 35.6822 37.3667 35.312 43.6739 35.1612L47.8832 35.0652V32.9125H44.3457C42.3987 32.9125 40.7671 32.94 40.7397 32.9674ZM33.1025 57.017C33.9937 57.4557 34.7753 58.3881 35.118 59.4164C35.4745 60.4585 35.4745 60.911 35.1455 61.2126C34.9124 61.4183 34.501 61.4457 30.799 61.4046L26.6993 61.3634L26.0549 60.9795C25.0402 60.3762 24.2587 59.1011 24.0667 57.7985C23.9982 57.2912 24.0393 57.1952 24.3821 56.921C24.766 56.6193 24.8209 56.6193 28.6189 56.6605C32.3209 56.7016 32.4855 56.7153 33.1025 57.017Z" fill="black"/>
<path d="M54.0496 61.6388L55.9717 67.089H56.0475L57.9696 61.6388H58.7916L56.4143 68.1133H55.6049L53.2276 61.6388H54.0496Z" fill="black"/>
<path d="M61.7278 68.2144C61.26 68.2144 60.8564 68.1112 60.517 67.9046C60.1798 67.696 59.9195 67.4051 59.7362 67.0321C59.5549 66.657 59.4643 66.2207 59.4643 65.7233C59.4643 65.2259 59.5549 64.7875 59.7362 64.4082C59.9195 64.0267 60.1746 63.7295 60.5012 63.5167C60.83 63.3017 61.2136 63.1942 61.652 63.1942C61.9049 63.1942 62.1546 63.2364 62.4012 63.3207C62.6478 63.405 62.8722 63.542 63.0746 63.7317C63.2769 63.9192 63.4381 64.1679 63.5583 64.4777C63.6784 64.7875 63.7384 65.169 63.7384 65.6221V65.9383H59.9954V65.2934H62.9797C62.9797 65.0194 62.9249 64.7749 62.8153 64.5599C62.7079 64.345 62.554 64.1753 62.3538 64.051C62.1557 63.9266 61.9217 63.8644 61.652 63.8644C61.3548 63.8644 61.0977 63.9382 60.8806 64.0857C60.6656 64.2312 60.5002 64.4208 60.3843 64.6548C60.2683 64.8887 60.2104 65.1395 60.2104 65.4072V65.8371C60.2104 66.2038 60.2736 66.5147 60.4001 66.7697C60.5286 67.0226 60.7067 67.2155 60.9343 67.3482C61.162 67.4789 61.4265 67.5442 61.7278 67.5442C61.9238 67.5442 62.1009 67.5168 62.2589 67.462C62.4191 67.4051 62.5572 67.3208 62.6731 67.2091C62.789 67.0953 62.8786 66.9541 62.9418 66.7855L63.6626 66.9878C63.5867 67.2323 63.4592 67.4473 63.2801 67.6328C63.1009 67.8161 62.8796 67.9594 62.6162 68.0627C62.3527 68.1639 62.0566 68.2144 61.7278 68.2144Z" fill="black"/>
<path d="M66.0646 65.1922V68.1133H65.3185V61.6388H66.0646V64.0162H66.1278C66.2416 63.7654 66.4123 63.5662 66.6399 63.4187C66.8697 63.269 67.1752 63.1942 67.5567 63.1942C67.8876 63.1942 68.1774 63.2606 68.4261 63.3934C68.6748 63.5241 68.8676 63.7253 69.0046 63.9972C69.1437 64.267 69.2133 64.6105 69.2133 65.0278V68.1133H68.4672V65.0784C68.4672 64.6927 68.3671 64.3945 68.1669 64.1837C67.9688 63.9709 67.6937 63.8644 67.3417 63.8644C67.0973 63.8644 66.8781 63.9161 66.6842 64.0193C66.4924 64.1226 66.3407 64.2733 66.229 64.4714C66.1194 64.6695 66.0646 64.9098 66.0646 65.1922Z" fill="black"/>
<path d="M71.0233 68.1133V63.2575H71.7694V68.1133H71.0233ZM71.4027 62.4481C71.2572 62.4481 71.1318 62.3986 71.0265 62.2996C70.9232 62.2005 70.8716 62.0814 70.8716 61.9423C70.8716 61.8032 70.9232 61.6842 71.0265 61.5851C71.1318 61.486 71.2572 61.4365 71.4027 61.4365C71.5481 61.4365 71.6724 61.486 71.7757 61.5851C71.8811 61.6842 71.9338 61.8032 71.9338 61.9423C71.9338 62.0814 71.8811 62.2005 71.7757 62.2996C71.6724 62.3986 71.5481 62.4481 71.4027 62.4481Z" fill="black"/>
<path d="M75.5537 68.2144C75.0984 68.2144 74.7064 68.107 74.3776 67.892C74.0489 67.677 73.7959 67.3809 73.6189 67.0036C73.4419 66.6264 73.3534 66.1954 73.3534 65.7107C73.3534 65.2175 73.444 64.7823 73.6252 64.405C73.8086 64.0257 74.0636 63.7295 74.3903 63.5167C74.7191 63.3017 75.1026 63.1942 75.541 63.1942C75.8824 63.1942 76.1901 63.2575 76.4641 63.3839C76.7381 63.5104 76.9626 63.6874 77.1375 63.915C77.3124 64.1426 77.421 64.4082 77.4631 64.7117H76.717C76.6601 64.4904 76.5337 64.2944 76.3377 64.1237C76.1438 63.9508 75.8824 63.8644 75.5537 63.8644C75.2628 63.8644 75.0078 63.9403 74.7886 64.092C74.5715 64.2417 74.4019 64.4535 74.2796 64.7275C74.1595 64.9994 74.0994 65.3186 74.0994 65.6854C74.0994 66.0605 74.1584 66.3872 74.2765 66.6654C74.3966 66.9436 74.5652 67.1596 74.7823 67.3135C75.0015 67.4673 75.2586 67.5442 75.5537 67.5442C75.7475 67.5442 75.9235 67.5105 76.0816 67.4431C76.2397 67.3756 76.3735 67.2787 76.4831 67.1522C76.5927 67.0258 76.6707 66.874 76.717 66.697H77.4631C77.421 66.9836 77.3166 67.2418 77.1501 67.4715C76.9857 67.6991 76.7676 67.8804 76.4957 68.0153C76.226 68.1481 75.9119 68.2144 75.5537 68.2144Z" fill="black"/>
<path d="M79.745 61.6388V68.1133H78.9989V61.6388H79.745Z" fill="black"/>
<path d="M83.5925 68.2144C83.1246 68.2144 82.721 68.1112 82.3817 67.9046C82.0445 67.696 81.7842 67.4051 81.6008 67.0321C81.4196 66.657 81.329 66.2207 81.329 65.7233C81.329 65.2259 81.4196 64.7875 81.6008 64.4082C81.7842 64.0267 82.0392 63.7295 82.3659 63.5167C82.6947 63.3017 83.0782 63.1942 83.5166 63.1942C83.7695 63.1942 84.0193 63.2364 84.2658 63.3207C84.5124 63.405 84.7369 63.542 84.9392 63.7317C85.1415 63.9192 85.3028 64.1679 85.4229 64.4777C85.543 64.7875 85.6031 65.169 85.6031 65.6221V65.9383H81.8601V65.2934H84.8444C84.8444 65.0194 84.7896 64.7749 84.68 64.5599C84.5725 64.345 84.4186 64.1753 84.2184 64.051C84.0203 63.9266 83.7864 63.8644 83.5166 63.8644C83.2194 63.8644 82.9623 63.9382 82.7452 64.0857C82.5303 64.2312 82.3648 64.4208 82.2489 64.6548C82.133 64.8887 82.075 65.1395 82.075 65.4072V65.8371C82.075 66.2038 82.1383 66.5147 82.2647 66.7697C82.3933 67.0226 82.5714 67.2155 82.799 67.3482C83.0266 67.4789 83.2911 67.5442 83.5925 67.5442C83.7885 67.5442 83.9655 67.5168 84.1236 67.462C84.2838 67.4051 84.4218 67.3208 84.5377 67.2091C84.6536 67.0953 84.7432 66.9541 84.8064 66.7855L85.5272 66.9878C85.4513 67.2323 85.3238 67.4473 85.1447 67.6328C84.9655 67.8161 84.7443 67.9594 84.4808 68.0627C84.2174 68.1639 83.9213 68.2144 83.5925 68.2144Z" fill="black"/>
</svg>
